PathFileType	4	(X/Y/Z)	Kaydara	
DataRate	CameraRate	NumFrames	NumMarkers	Units	OrigDataRate	OrigDataStartFrame	OrigNumFrames	
120.00	120.00	4	72	mm	120.00	164	261	
Frame#	Time	Hips			RightUpLeg			RightLeg			RightFoot			RightFoot_End			LeftUpLeg			LeftLeg			LeftFoot			LeftFoot_End			Spine			Spine1			Spine2			Spine3			Neck			Head			Head_End			RightShoulder			RightArm			RightForeArm			RightHand			RightHandThumb1			RightHandThumb2			RightHandThumb3			RightHandThumb3_End			RightInHandIndex			RightHandIndex1			RightHandIndex2			RightHandIndex3			RightHandIndex3_End			RightInHandMiddle			RightHandMiddle1			RightHandMiddle2			RightHandMiddle3			RightHandMiddle3_End			RightInHandRing			RightHandRing1			RightHandRing2			RightHandRing3			RightHandRing3_End			RightInHandPinky			RightHandPinky1			RightHandPinky2			RightHandPinky3			RightHandPinky3_End			LeftShoulder			LeftArm			LeftForeArm			LeftHand			LeftHandThumb1			LeftHandThumb2			LeftHandThumb3			LeftHandThumb3_End			LeftInHandIndex			LeftHandIndex1			LeftHandIndex2			LeftHandIndex3			LeftHandIndex3_End			LeftInHandMiddle			LeftHandMiddle1			LeftHandMiddle2			LeftHandMiddle3			LeftHandMiddle3_End			LeftInHandRing			LeftHandRing1			LeftHandRing2			LeftHandRing3			LeftHandRing3_End			LeftInHandPinky			LeftHandPinky1			LeftHandPinky2			LeftHandPinky3			LeftHandPinky3_End			
		X1	Y1	Z1	X2	Y2	Z2	X3	Y3	Z3	X4	Y4	Z4	X5	Y5	Z5	X6	Y6	Z6	X7	Y7	Z7	X8	Y8	Z8	X9	Y9	Z9	X10	Y10	Z10	X11	Y11	Z11	X12	Y12	Z12	X13	Y13	Z13	X14	Y14	Z14	X15	Y15	Z15	X16	Y16	Z16	X17	Y17	Z17	X18	Y18	Z18	X19	Y19	Z19	X20	Y20	Z20	X21	Y21	Z21	X22	Y22	Z22	X23	Y23	Z23	X24	Y24	Z24	X25	Y25	Z25	X26	Y26	Z26	X27	Y27	Z27	X28	Y28	Z28	X29	Y29	Z29	X30	Y30	Z30	X31	Y31	Z31	X32	Y32	Z32	X33	Y33	Z33	X34	Y34	Z34	X35	Y35	Z35	X36	Y36	Z36	X37	Y37	Z37	X38	Y38	Z38	X39	Y39	Z39	X40	Y40	Z40	X41	Y41	Z41	X42	Y42	Z42	X43	Y43	Z43	X44	Y44	Z44	X45	Y45	Z45	X46	Y46	Z46	X47	Y47	Z47	X48	Y48	Z48	X49	Y49	Z49	X50	Y50	Z50	X51	Y51	Z51	X52	Y52	Z52	X53	Y53	Z53	X54	Y54	Z54	X55	Y55	Z55	X56	Y56	Z56	X57	Y57	Z57	X58	Y58	Z58	X59	Y59	Z59	X60	Y60	Z60	X61	Y61	Z61	X62	Y62	Z62	X63	Y63	Z63	X64	Y64	Z64	X65	Y65	Z65	X66	Y66	Z66	X67	Y67	Z67	X68	Y68	Z68	X69	Y69	Z69	X70	Y70	Z70	X71	Y71	Z71	X72	Y72	Z72	

164	1.358	81.20300000000043	893.81699	129.612	166.96309999999994	895.4283700000001	93.8666	47.5259700000006	499.08946000000003	29.45032000000001	54.44802999999956	112.07085	10.152660000000001	-55.494039999999586	37.27775	147.4747	6.513739999999416	866.36706	180.65810999999997	-96.04226000000017	482.62237000000005	313.53011	-198.61009000000013	81.98823999999999	476.89545000000004	-336.6423599999998	35.293989999999994	353.18066	28.70799999999963	1013.3880399999999	71.32735000000001	-25.579060000000027	1075.48258	20.114760000000004	-86.00942999999916	1134.4348900000002	-35.59698000000001	-148.52590999999939	1181.7743600000001	-93.00791000000001	-217.05425999999989	1233.69151	-151.27136000000002	-291.04609999999957	1273.73834	-193.61572	-429.4875899999997	1351.42088	-209.09555999999998	-170.43598999999995	1232.3579499999998	-145.79748	-79.96159999999963	1293.6175700000001	-211.31023	46.86393000000044	1091.58015	-327.39991	254.99870999999985	1037.6993899999998	-473.24710000000005	273.3765800000001	1066.06815	-494.56349	278.5201499999994	1073.7494399999998	-530.2117599999999	282.9616500000002	1074.7307899999998	-555.38734	287.39964000000055	1071.8122600000002	-576.6746700000001	280.14510000000064	1054.0833399999997	-496.82039	313.09650000000056	1058.28672	-538.27814	325.33784000000014	1055.4955399999994	-572.22432	323.8236800000004	1053.8544499999998	-592.62347	316.4155700000001	1052.5596599999997	-609.03219	280.8278799999998	1041.78534	-496.57192	313.34004000000004	1039.23482	-536.8727100000001	326.6676400000006	1034.5456200000003	-573.7538400000001	324.82636	1031.7770600000003	-598.2874599999999	316.71349999999984	1029.9769299999998	-616.2040300000001	280.5901100000001	1033.0198600000003	-495.29722999999996	309.87428999999975	1023.21375	-530.1877200000001	321.4072900000001	1017.45052	-562.10595	319.5869299999995	1013.8899099999999	-585.64975	311.93778999999995	1011.7755299999999	-602.43858	278.41046000000006	1022.5565000000001	-492.9516000000001	304.34169999999995	1007.2148799999999	-523.382	313.3182200000001	1000.02752	-548.4341400000001	311.8652999999995	996.18606	-565.36194	305.01739	993.59692	-580.09303	-218.18021000000044	1198.96208	-118.71249	-291.40446000000065	1099.92309	-81.69695000000002	-72.16601999999966	1036.13149	-215.58812999999998	148.14580000000024	1019.9873700000002	-352.30258999999995	170.4116300000005	1051.25066	-363.42739	203.39603999999963	1065.1452899999997	-354.75413999999995	227.70990999999958	1070.5684499999998	-348.9296100000001	249.1286799999998	1071.4511300000001	-344.25832	177.06124999999975	1039.69705	-367.53088	227.14300000000003	1050.47499	-381.59722	263.11344999999983	1053.5735300000001	-379.04574999999994	281.1096099999995	1055.71186	-369.41886	293.05958999999984	1057.62474	-356.0270200000001	179.0254299999997	1027.54506	-367.04091000000005	228.93577000000005	1031.48579	-380.4992899999999	268.28479999999945	1033.2230200000001	-377.5894400000001	290.0435800000005	1035.01399	-365.91461	303.14190000000053	1036.72354	-351.23217999999997	179.14251000000058	1018.7036900000002	-366.46530000000007	223.9953999999998	1014.61612	-378.4059500000001	258.31371000000036	1014.4436499999999	-375.7186	279.31321000000025	1015.2754899999999	-364.37703999999997	291.6343399999996	1016.4584399999999	-350.53380000000004	177.76830000000064	1008.0513000000001	-364.37413	218.1008899999997	997.8024	-374.4759399999999	245.41967999999997	995.0506399999998	-372.03523000000007	260.65841999999975	994.3930599999999	-363.6229599999999	271.52783	994.71334	-351.27970000000005
165	1.367	81.20300000000043	893.81699	129.612	166.52088000000003	894.7674600000001	92.80059	45.69020999999975	498.91645	27.984370000000006	61.66625000000022	112.20475	7.920939999999998	-48.30767999999989	37.16436	145.08245999999997	7.0137299999996685	867.0662700000001	181.74681999999999	-94.60185000000001	482.96985	314.32475	-195.82393000000047	80.94216	475.0852	-334.31456999999955	33.930009999999996	352.0047	28.595829999999296	1013.2944700000002	71.23667	-25.555269999999837	1075.50014	20.015009999999997	-85.86142999999993	1134.60074	-35.67421	-148.35195999999996	1182.05206	-93.02102	-216.74397000000044	1234.1389	-151.29322000000002	-289.6773800000001	1274.8932000000002	-194.78332999999998	-428.0683200000003	1352.5597000000002	-210.78676	-170.06203000000005	1231.5120899999997	-146.94566999999998	-79.69286000000011	1291.5510799999997	-213.72151	43.28947000000062	1086.59161	-328.81977	249.5587599999999	1029.45297	-476.07052	267.9671900000003	1057.3669100000002	-497.95347000000004	272.75334999999995	1064.5614999999998	-533.75274	276.89631999999983	1065.1912000000002	-558.9904000000001	281.04297999999926	1061.9686599999998	-580.29261	274.5830900000001	1045.28521	-500.14536999999996	307.06638999999996	1048.6398600000002	-542.04751	318.8617899999999	1045.30938	-576.10277	317.0811599999997	1043.4373900000003	-596.46048	309.4597699999995	1042.02189	-612.76119	275.1414500000001	1032.9846199999997	-499.75472	307.12979000000087	1029.60488	-540.4121099999998	319.9557199999999	1024.3296699999999	-577.39182	317.78574000000026	1021.28372	-601.86563	309.4359999999997	1019.3520800000001	-619.6592500000002	274.8285300000007	1024.2382099999998	-498.37009	303.5803699999997	1013.7032200000001	-533.4901	314.6615499999998	1007.43307	-565.4727599999999	312.51640000000043	1003.6069399999999	-588.9474499999999	304.6408700000002	1001.36988	-605.6152799999999	272.56951000000026	1013.8274900000001	-495.87036	297.9660899999999	997.84694	-526.4226099999998	306.5604000000003	990.26284	-551.49181	304.8607099999999	986.2321499999998	-568.3524999999997	297.80656999999974	983.5369000000001	-582.96678	-218.09020000000055	1200.57021	-117.54694000000002	-291.56285000000025	1102.50436	-78.48901000000001	-74.45413999999982	1034.55635	-213.79824000000002	143.8766800000003	1013.6861899999998	-353.02777	166.3996100000004	1044.48597	-364.90267	199.6793600000001	1058.06068	-356.8750600000001	224.13962999999967	1063.24081	-351.45641	245.6297199999999	1063.90355	-347.08605	172.8398100000004	1032.78674	-368.92686000000003	222.86342999999943	1042.69059	-383.81844	258.90300000000025	1045.34358	-381.79479	277.0550800000001	1047.37858	-372.44213	289.21029	1049.32307	-359.24091	174.64999999999964	1020.6178299999998	-368.28697	224.42032000000017	1023.6967800000001	-382.46919	263.8247799999999	1024.94864	-380.11277999999993	285.76206999999977	1026.61532	-368.75798999999995	299.0802899999999	1028.3596399999997	-354.27887999999996	174.6582499999995	1011.78484	-367.58474	219.28675999999996	1006.9264900000001	-380.0652	253.63318999999956	1006.33318	-377.83607000000006	274.7941499999997	1007.04629	-366.79038	287.3169600000001	1008.2624900000001	-353.13224	173.17220999999972	1001.18286	-365.32096	213.22496000000046	990.25124	-375.81291000000004	240.53575	987.16929	-373.69908000000004	255.8775000000005	986.42842	-365.48325	266.9170600000007	986.7800399999999	-353.29280000000006
166	1.375	81.20300000000043	893.81699	129.612	166.02464000000055	894.04908	91.65993	43.66524000000027	498.70090000000005	26.642969999999995	63.855679999999666	112.21341	6.064249999999998	-46.10254999999961	36.89044	143.08340999999996	7.573080000000118	867.8260099999999	182.91108999999997	-93.27648000000045	483.44425	315.24674000000005	-193.1241799999998	79.96239	473.19899000000004	-332.2200899999998	32.71631	350.89304000000004	28.472069999999803	1013.19272	71.14026	-25.647149999999783	1075.41898	19.9099	-85.9062300000005	1134.5713099999998	-35.775349999999996	-148.35382000000027	1182.0949600000004	-93.10904	-216.65088000000014	1234.2823	-151.40268	-289.1789199999994	1275.34263	-195.28113000000005	-427.5084399999996	1353.0647799999997	-211.54331	-169.96488000000045	1231.0336700000005	-147.54665999999997	-79.72465999999986	1289.30477	-216.04088999999996	39.1289799999995	1081.2440800000002	-329.90578	243.26017000000047	1020.4614800000002	-478.66921	261.7049900000002	1047.87773	-501.14272	266.1115	1054.5597099999998	-537.08978	269.9355599999999	1054.8197100000002	-562.38423	273.7697099999996	1051.27808	-583.6943200000001	268.15251999999964	1035.6926699999997	-503.26303999999993	300.1290799999997	1038.13413	-545.6156900000001	311.44509000000016	1034.2329399999999	-579.77287	309.38057000000026	1032.1229199999998	-600.08043	301.53376000000026	1030.5891600000004	-616.26306	268.5742	1023.39237	-502.72119	299.99439000000075	1019.12206	-543.7362600000001	312.2806499999997	1013.22718	-580.8055100000001	309.76022999999986	1009.89552	-605.2084100000001	301.15997999999945	1007.83522	-622.86777	268.17846999999983	1014.66854	-501.22017	296.35167999999976	1003.35233	-536.5653699999999	306.9464600000001	996.54663	-568.60333	304.45476999999937	992.44735	-591.9975500000002	296.33966000000055	990.09045	-608.5334100000001	265.83215999999993	1004.31757	-498.55799999999994	290.6468300000006	987.6539400000003	-529.22327	298.82916000000023	979.6515299999999	-554.3002900000001	296.8658199999991	975.4266799999998	-571.08463	289.5931900000005	972.6282099999999	-585.57186	-218.09463999999934	1201.2609599999998	-117.12457999999998	-291.8127799999993	1104.28382	-75.87249	-77.05133999999998	1031.81614	-212.57535	139.0324300000002	1005.7134600000002	-354.40352000000007	161.81143000000066	1036.0055499999999	-367.06953	195.38853999999992	1049.22833	-359.72150999999997	219.99352	1054.1434700000002	-354.72789	241.5509200000006	1054.5682700000002	-350.6706	168.0296500000004	1024.156	-371.0019699999999	217.9691700000003	1033.12068	-386.7464100000001	254.0674600000002	1035.29313	-385.27051000000006	272.3777200000004	1037.2134399999998	-376.20639	284.74593000000004	1039.18716	-363.2089199999999	169.67875000000004	1011.97386	-370.19903999999997	219.27986000000055	1014.12957	-385.12493000000006	258.72756000000027	1014.85859	-383.3419000000001	280.8456900000001	1016.3876400000001	-372.32354999999995	294.3921099999998	1018.16429	-358.06170000000003	169.5737199999994	1003.1534199999999	-369.36018	213.9475199999997	997.47249	-382.38944	248.3106200000002	996.42649	-380.63401999999996	269.6348600000001	997.0084599999999	-369.89901999999995	282.36695000000054	998.2558200000001	-356.43860000000006	167.9722700000002	992.60945	-366.91170999999997	207.7148100000004	980.9518700000001	-377.79449	235.00728999999956	977.51575	-376.0169599999999	250.45280999999977	976.6832400000001	-368.00692000000004	261.6689500000002	977.0647899999999	-355.97965
167	1.383	81.20300000000043	893.81699	129.612	165.45912000000044	893.29626	90.42323999999999	41.85262999999941	498.33095	25.438200000000002	66.01993000000039	112.10333000000001	4.274940000000001	-44.00025000000005	36.558370000000004	141.12203000000002	8.2195499999998	868.6275500000002	184.1702	-92.00897999999961	484.00347000000005	316.27338	-190.33630999999968	78.98438999999999	471.21654	-330.2347099999997	31.61302	349.87816	28.28247999999985	1013.06319	71.0473	-25.832249999999476	1075.2815100000003	19.802570000000003	-86.06284999999934	1134.45688	-35.889019999999995	-148.46691999999985	1182.0319299999999	-93.22746000000001	-216.66753000000062	1234.29381	-151.56723	-288.7803899999999	1275.6522	-195.84817999999999	-427.02748000000065	1353.41518	-212.60857	-169.99149000000034	1230.4579600000002	-148.15562000000003	-79.85462000000007	1287.21354	-218.04430000000002	38.811289999999644	1079.0124300000002	-331.84827999999993	234.6630299999997	1004.9141499999998	-485.62138000000004	253.14610999999968	1031.7835299999997	-508.7154100000001	257.1461100000006	1037.9205900000002	-544.80688	260.62759000000005	1037.78861	-570.1517399999999	264.1252599999998	1033.90952	-591.46095	259.4088299999994	1019.48879	-510.75503000000003	290.83282000000054	1020.9440899999998	-553.5641799999999	301.6311400000004	1016.43506	-587.8139799999999	299.2630300000001	1014.0769000000001	-608.0610200000001	291.17724999999973	1012.4252900000001	-624.11389	259.68163000000004	1007.19255	-510.0502	290.48235999999997	1001.96254	-551.4224300000001	302.18570999999974	995.40821	-588.5694899999999	299.2903699999997	991.77903	-612.8881999999999	290.42443000000003	989.5906599999998	-630.40015	259.19567000000006	998.49568	-508.4244299999999	286.73789000000033	986.3396399999999	-543.9874200000002	296.80715000000055	978.96461	-576.0688299999999	293.94454999999925	974.5812300000001	-599.3689	285.5752300000004	972.1052900000001	-615.76004	256.7546400000001	988.21281	-505.5891200000001	280.93487000000005	970.8169599999998	-536.35443	288.67189999999937	962.3708099999999	-561.4272600000002	286.4261800000004	957.9446200000001	-578.1240699999998	278.92155	955.0440900000001	-592.47225	-218.19358999999986	1201.80358	-116.78883	-292.1452999999992	1106.0236	-73.22273	-79.98408999999992	1028.6660699999998	-211.29933	135.99654999999984	1002.3229299999998	-353.24008	159.03282000000036	1032.05732	-366.73519	192.91088000000036	1044.88469	-360.10246000000006	217.65908000000036	1049.50495	-355.55494	239.27909999999974	1049.66723	-351.82505	165.01312000000053	1020.05282	-370.56535	214.83831999999984	1028.0025199999995	-387.19242	250.98321000000033	1029.64939	-386.28732	269.4546099999998	1031.4368100000002	-377.52811	282.0453699999998	1033.4312899999998	-364.74932	166.49167999999918	1007.86152	-369.58815	215.88901999999962	1009.02226	-385.2806800000001	255.36558999999943	1009.1800599999998	-384.09458	277.66759	1010.54988	-373.43167000000005	291.45238000000063	1012.3498	-359.40304	166.26735000000008	999.05834	-368.60391	210.34987999999976	992.49437	-382.19485	244.7160299999996	990.9544600000002	-380.93202999999994	266.2058799999995	991.3849400000001	-370.52517	279.1565300000002	992.6551800000001	-357.27707	164.54539000000022	988.58074	-365.9601400000001	203.9406200000003	976.14655	-377.23891	231.20232000000033	972.32496	-375.81016999999997	246.75256999999965	971.38681	-368.0173899999999	258.1530699999994	971.79141	-356.16549
